<svg xmlns="http://www.w3.org/2000/svg" viewBox="0 0 200 52.56"><defs><style>.cls-1,.cls-3{fill:#34353b;}.cls-1,.cls-2,.cls-5{fill-rule:evenodd;}.cls-2{fill:#fff;}.cls-4,.cls-5{fill:#30529a;}</style></defs><title>Recurso 3</title><g id="Capa_2" data-name="Capa 2"><g id="Capa_1-2" data-name="Capa 1"><path class="cls-1" d="M4.78,0H195.22A4.77,4.77,0,0,1,200,4.74V47.86a4.75,4.75,0,0,1-4.78,4.7H4.78A4.75,4.75,0,0,1,0,47.86V4.74A4.77,4.77,0,0,1,4.78,0Z"/><path class="cls-2" d="M152.79,50.26H6.68a4.48,4.48,0,0,1-4.47-4.43V6.62A4.47,4.47,0,0,1,6.68,2.2H152.79Z"/><path class="cls-3" d="M123.33,27.68V23.46h13.88a14.27,14.27,0,0,1,5.94,1.08c1.52.73,2.29,1.74,2.29,3.07V40H131.06a19.68,19.68,0,0,1-7.14-1.15c-2-.76-3-2-3-3.9a3.56,3.56,0,0,1,1.79-3.21,15.65,15.65,0,0,1,4-1.57c.73-.13,1.44-.27,2.14-.38s1.3-.17,1.86-.24,1-.11,1.44-.18.88-.1,1.31-.14c.07,0,.14,0,.17,0h.14l.85-.11.87-.1a1.92,1.92,0,0,0,.88-.28.52.52,0,0,0,.25-.49c0-.14-.11-.28-.32-.38a1.88,1.88,0,0,0-.88-.17Zm13,5.33-5.16,1a3.7,3.7,0,0,0-1.09.28c-.25.1-.39.24-.39.38a.5.5,0,0,0,.32.52,1.85,1.85,0,0,0,.87.18h5.45Z"/><path class="cls-3" d="M117.38,26a2.4,2.4,0,0,1,.36.35,1.34,1.34,0,0,1,.28.34,2.88,2.88,0,0,1,.63,1.57,17.22,17.22,0,0,1,.11,2.09V40h-9.11V29.52a2.39,2.39,0,0,0-.32-1.39c-.21-.32-1-.45-2.21-.45h-1.58V40H97V29.63a2.77,2.77,0,0,0-.28-1.5c-.21-.32-1-.45-2.25-.45H92.88V40h-9V23.46H109a15.61,15.61,0,0,1,5.24.73A9.38,9.38,0,0,1,117.38,26Z"/><path class="cls-3" d="M58.11,26a10.33,10.33,0,0,1,3.1-1.78A13.94,13.94,0,0,1,66,23.46h14V39.73a5.29,5.29,0,0,1-.25,1.82,3.57,3.57,0,0,1-.74,1.36c-.14.17-.28.31-.42.45s-.28.31-.45.49A8.16,8.16,0,0,1,75,45.49a15.44,15.44,0,0,1-4.29.59H57.62v-4.5H68.76c1.13,0,1.76-.14,1.94-.35a1.86,1.86,0,0,0,.24-1.08V40H65.39a12.56,12.56,0,0,1-4.25-.66,8.05,8.05,0,0,1-3-1.71,5.74,5.74,0,0,1-1.61-2A7.48,7.48,0,0,1,56,32.49v-.91a9.53,9.53,0,0,1,.49-3.28A5.3,5.3,0,0,1,58.11,26Zm9.46,9.38h3.37v-7.7H67.57a6.43,6.43,0,0,0-.92.06,1.24,1.24,0,0,0-.52.28.94.94,0,0,0-.18.11l-.17.17a1.53,1.53,0,0,0-.43.7,6.51,6.51,0,0,0-.21,1.05,2.12,2.12,0,0,1,0,.45c0,.17,0,.31,0,.45v1.19c0,.14,0,.31,0,.45a2.27,2.27,0,0,1,0,.45,5.31,5.31,0,0,0,.21,1,1.48,1.48,0,0,0,.43.7c.07,0,.1.11.17.14a.42.42,0,0,0,.18.14,1.24,1.24,0,0,0,.52.28,6.14,6.14,0,0,0,.92.07Z"/><rect class="cls-3" x="44.05" y="23.46" width="9.03" height="16.56"/><path class="cls-1" d="M17.19,12H40.36l0,6.41-19.12.07c-2.53,0-3.16.8-3.16,2.2l0,2.16H40.46l.14,8.68c.11,5.75-2.39,8.68-7.2,8.64L9.7,40l0-6.34H29.46c1.2,0,3.2.1,3.2-1.32V29.21l-22.5.1L10,20.67C9.84,15.06,12.37,12,17.19,12Z"/><rect class="cls-4" x="47.21" y="11.99" width="2.18" height="4.71"/><path class="cls-5" d="M52.52,15a4.57,4.57,0,0,0-1.37-1.64L50.2,14.6a2.88,2.88,0,0,1,.92,1.12,2.68,2.68,0,0,1,.35,1.36,3.45,3.45,0,0,1-.25,1.22,3.36,3.36,0,0,1-.67,1,3.65,3.65,0,0,1-1,.66,2.85,2.85,0,0,1-1.23.25A2.91,2.91,0,0,1,47.07,20a3.19,3.19,0,0,1-1-.66,3.22,3.22,0,0,1-.92-2.23,3,3,0,0,1,.32-1.36,2.88,2.88,0,0,1,.92-1.12l-.92-1.25A4.37,4.37,0,0,0,44.09,15a4.27,4.27,0,0,0-.5,2.09,4.83,4.83,0,0,0,.35,1.85,5.87,5.87,0,0,0,1,1.46,4.87,4.87,0,0,0,3.34,1.39,4.51,4.51,0,0,0,1.83-.38,4.45,4.45,0,0,0,1.51-1,4.64,4.64,0,0,0,1-1.46,4.68,4.68,0,0,0,.39-1.85A4.41,4.41,0,0,0,52.52,15Z"/><path class="cls-4" d="M177,33.77a6.45,6.45,0,0,0,2.64-.52,1.73,1.73,0,0,0,1.2-1.6,1.71,1.71,0,0,0-1.2-1.64,7.18,7.18,0,0,0-2.64-.56H166.88V26l7.77-4.95H162v-6h28.37v3.41l-1.44.91c-1,.59-2,1.29-3.2,2l-3.27,2a14.92,14.92,0,0,0-1.4.94,11.76,11.76,0,0,1,1.86.18c.7.14,1.44.31,2.18.52a15.13,15.13,0,0,1,4.43,2.41,4.52,4.52,0,0,1,2,3.69v1.46c0,2.51-1.44,4.33-4.29,5.48a26,26,0,0,1-9.7,1.7H162.1v-6.1Z"/></g></g></svg>